<svg xmlns="http://www.w3.org/2000/svg" width="42" height="48.921" viewBox="0 0 42 48.921">
  <g id="cmn-logo_jpta_01" transform="translate(-0.5 -0.565)">
    <path id="パス_2176" data-name="パス 2176" d="M38.3,11.8H51.776V28.464H38.3Zm12.172,1.3H39.6v5.941H50.472Zm0,7.245H39.6V27.16H50.472Z" transform="translate(16.865 4.983)" fill="#231815"/>
    <path id="パス_2177" data-name="パス 2177" d="M143.564,19.27v8.115h7.1v1.3h-15.65v-1.3h7.1V19.27H134v-1.3h8.115V11.3h1.449v6.666h7.97v1.3Z" transform="translate(59.558 4.76)" fill="#231815"/>
    <path id="パス_2178" data-name="パス 2178" d="M13.235,8.868a3.836,3.836,0,0,1-3.768,3.768A3.836,3.836,0,0,1,5.7,8.868,3.836,3.836,0,0,1,9.468,5.1a3.741,3.741,0,0,1,3.768,3.768" transform="translate(2.335 2.021)" fill="#e8380d"/>
    <path id="パス_2179" data-name="パス 2179" d="M25.135,4.368a3.768,3.768,0,0,1-7.535,0A3.836,3.836,0,0,1,21.368.6a3.741,3.741,0,0,1,3.768,3.768" transform="translate(7.679 0)" fill="#e8380d"/>
    <path id="パス_2180" data-name="パス 2180" d="M18.9,14.343C16.44,12.025,14.121,11.3,10.354,11.3,5.572,11.3.5,15.212.5,20.139c0,7.245,9.274,11.013,17.389,11.013,6.231,0,13.476-2.753,15.94-5.072a20.511,20.511,0,0,1-15.5.725c-4.782-1.739-8.839-5.217-8.839-7.97.145-3.478,4.057-6.086,9.419-4.492" transform="translate(0 4.756)" fill="#00a73b"/>
    <path id="パス_2181" data-name="パス 2181" d="M13.2,16.464c0-5.072,4.492-9.564,11.448-9.564,4.782,0,9.564,3.623,9.564,8.549,0,7.245-6.231,11.737-9.419,12.9a16.272,16.272,0,0,1-9.419.58c7.245-1.884,10-6.666,10-10.143,0-3.043-2.608-4.782-5.506-4.782A10.751,10.751,0,0,0,13.2,16.464" transform="translate(5.703 2.797)" fill="#363483"/>
    <path id="パス_2182" data-name="パス 2182" d="M47.3,8.3v-.58h1.014V4.1H54.69V7.868h1.159V8.3ZM50.343,4.68h-1.3V7.723h1.3Zm1.884,0h-1.3V7.723h1.3Zm1.884,0h-1.3V7.723h1.3Z" transform="translate(20.884 1.572)" fill="#231815"/>
    <path id="パス_2183" data-name="パス 2183" d="M47.3,8.3v-.58h1.014V4.1H54.69V7.868h1.159V8.3ZM50.343,4.68h-1.3V7.723h1.3Zm1.884,0h-1.3V7.723h1.3Zm1.884,0h-1.3V7.723h1.3Z" transform="translate(20.884 1.572)" fill="none" stroke="#231815" stroke-miterlimit="10" stroke-width="0.044"/>
    <path id="パス_2184" data-name="パス 2184" d="M58.5,9.784V9.2h2.318V4.568H58.935v-.58h1.884V.8h.725V3.988h1.884v.58H61.543V9.2h2.318v.58Z" transform="translate(25.884 0.09)" fill="#231815"/>
    <path id="パス_2185" data-name="パス 2185" d="M58.5,9.784V9.2h2.318V4.568H58.935v-.58h1.884V.8h.725V3.988h1.884v.58H61.543V9.2h2.318v.58Z" transform="translate(25.884 0.09)" fill="none" stroke="#231815" stroke-miterlimit="10" stroke-width="0.044"/>
    <path id="パス_2186" data-name="パス 2186" d="M75.239,4.084A16.138,16.138,0,0,0,73.5,2.925V2.2a8.83,8.83,0,0,1,1.739,1.014Z" transform="translate(32.581 0.718)" fill="#231815"/>
    <path id="パス_2187" data-name="パス 2187" d="M75.239,4.084A16.138,16.138,0,0,0,73.5,2.925V2.2a8.83,8.83,0,0,1,1.739,1.014Z" transform="translate(32.581 0.718)" fill="none" stroke="#231815" stroke-miterlimit="10" stroke-width="0.044"/>
    <path id="パス_2188" data-name="パス 2188" d="M75.394,2.629A6.941,6.941,0,0,0,73.8,1.469V.6a10.137,10.137,0,0,1,1.739,1.159Z" transform="translate(32.714)" fill="#231815"/>
    <path id="パス_2189" data-name="パス 2189" d="M75.394,2.629A6.941,6.941,0,0,0,73.8,1.469V.6a10.137,10.137,0,0,1,1.739,1.159Z" transform="translate(32.714)" fill="none" stroke="#231815" stroke-miterlimit="10" stroke-width="0.044"/>
    <path id="パス_2190" data-name="パス 2190" d="M38.345,34.231a1.1,1.1,0,0,0,.58.145c.869,0,1.159-.58,1.159-1.3V28H41.1v5.217c0,1.014-.435,1.884-2.029,1.884a1.838,1.838,0,0,1-.869-.145v-.725Z" transform="translate(16.825 12.212)" fill="#231815"/>
    <path id="パス_2191" data-name="パス 2191" d="M42.08,29.735a3.09,3.09,0,0,1,1.739-.435c1.449,0,2.029.725,2.029,2.174v3.188h-.869v-.725h0a2.067,2.067,0,0,1-1.594.725c-1.159,0-1.884-.435-1.884-1.594,0-1.3,1.449-1.739,2.318-1.739h1.014c0-.869-.29-1.3-1.3-1.3a1.68,1.68,0,0,0-1.449.58Zm2.753,2.318h-.58c-.58,0-1.739.145-1.739,1.014a.958.958,0,0,0,1.014.869,1.338,1.338,0,0,0,1.449-1.3v-.58Z" transform="translate(18.298 12.796)" fill="#231815"/>
    <path id="パス_2192" data-name="パス 2192" d="M46.145,29.345h.869v.725h0a2.039,2.039,0,0,1,1.739-.869c1.449,0,2.174,1.159,2.174,2.608s-.725,2.753-2.174,2.753a1.752,1.752,0,0,1-1.739-.869h0v2.753H46v-7.1Zm2.463.58c-1.014,0-1.449,1.014-1.449,1.884s.435,1.884,1.449,1.884,1.449-1.159,1.449-1.884c0-.869-.435-1.884-1.449-1.884" transform="translate(20.305 12.751)" fill="#231815"/>
    <path id="パス_2193" data-name="パス 2193" d="M51.18,29.735a3.09,3.09,0,0,1,1.739-.435c1.449,0,2.029.725,2.029,2.174v3.188h-.869v-.725h0a2.067,2.067,0,0,1-1.594.725c-1.159,0-1.884-.435-1.884-1.594,0-1.3,1.449-1.739,2.318-1.739h1.014c0-.869-.29-1.3-1.3-1.3a1.68,1.68,0,0,0-1.449.58Zm2.753,2.318h-.58c-.58,0-1.739.145-1.739,1.014a.958.958,0,0,0,1.014.869,1.338,1.338,0,0,0,1.449-1.3v-.58Z" transform="translate(22.359 12.796)" fill="#231815"/>
    <path id="パス_2194" data-name="パス 2194" d="M55.29,29.3h.869v.869h0A1.9,1.9,0,0,1,57.9,29.3c1.3,0,1.884.869,1.884,2.174v3.043H58.768V31.763c0-1.159-.29-1.739-1.159-1.884-1.014,0-1.594.869-1.594,2.174v2.318H55V29.3Z" transform="translate(24.322 12.796)" fill="#231815"/>
    <path id="パス_2195" data-name="パス 2195" d="M63.9,34.272a3.878,3.878,0,0,1-1.594.29c-1.884,0-2.608-1.159-2.608-2.753A2.478,2.478,0,0,1,62.163,29.2c1.739,0,2.318,1.3,2.318,2.9H60.859A1.674,1.674,0,0,0,62.6,33.837a2.637,2.637,0,0,0,1.594-.58v1.014Zm-.58-2.9a1.332,1.332,0,0,0-1.3-1.449c-.869,0-1.3.725-1.449,1.449Z" transform="translate(26.42 12.751)" fill="#231815"/>
    <path id="パス_2196" data-name="パス 2196" d="M64,33.5a2.313,2.313,0,0,0,1.159.435c.435,0,1.014-.145,1.014-.725,0-.869-2.174-.869-2.174-2.318,0-1.014.725-1.594,1.884-1.594.435,0,.869.145,1.159.145l-.145.725a2.094,2.094,0,0,0-1.014-.29c-.435,0-.869.145-.869.58,0,1.014,2.174.725,2.174,2.318a1.555,1.555,0,0,1-1.739,1.594A2.613,2.613,0,0,1,64,34.082Z" transform="translate(28.34 12.796)" fill="#231815"/>
    <path id="パス_2197" data-name="パス 2197" d="M71.5,34.272a3.878,3.878,0,0,1-1.594.29c-1.884,0-2.608-1.159-2.608-2.753A2.478,2.478,0,0,1,69.763,29.2c1.739,0,2.318,1.3,2.318,2.9H68.314a1.674,1.674,0,0,0,1.739,1.739,2.637,2.637,0,0,0,1.594-.58v1.014Zm-.58-2.9a1.332,1.332,0,0,0-1.3-1.449c-.869,0-1.3.725-1.449,1.449Z" transform="translate(29.811 12.751)" fill="#231815"/>
    <path id="パス_2198" data-name="パス 2198" d="M74.5,28h1.884c1.449,0,2.608.435,2.608,2.174,0,1.594-1.159,2.174-2.463,2.174H75.514V35.1H74.5V28Zm1.014,3.333h1.014a1.317,1.317,0,0,0,1.449-1.3c0-.869-.869-1.159-1.594-1.159h-.869Z" transform="translate(33.025 12.212)" fill="#231815"/>
    <path id="パス_2199" data-name="パス 2199" d="M78.89,28H79.9v2.608h0a1.665,1.665,0,0,1,1.594-.869c1.3,0,1.884.869,1.884,2.174v3.043H82.368V32.347c0-1.159-.29-1.739-1.159-1.884-1.014,0-1.594.869-1.594,2.174v2.318H78.6V28Z" transform="translate(34.854 12.212)" fill="#231815"/>
    <path id="パス_2200" data-name="パス 2200" d="M83.29,35.821c.145,0,.29.145.435.145.869,0,1.159-1.159,1.159-1.3s-.145-.435-.145-.58L83,29.3h1.014l1.449,4.2h0l1.449-4.2h1.014l-1.884,5.217c-.29,1.014-.725,2.174-2.029,2.174h-.58Z" transform="translate(36.818 12.796)" fill="#231815"/>
    <path id="パス_2201" data-name="パス 2201" d="M87.1,33.5a2.313,2.313,0,0,0,1.159.435c.435,0,1.014-.145,1.014-.725,0-.869-2.174-.869-2.174-2.318,0-1.014.725-1.594,1.884-1.594.435,0,.869.145,1.159.145L90,30.314a2.094,2.094,0,0,0-1.014-.29c-.435,0-.869.145-.869.58,0,1.014,2.174.725,2.174,2.318a1.555,1.555,0,0,1-1.739,1.594,2.613,2.613,0,0,1-1.449-.29Z" transform="translate(38.649 12.796)" fill="#231815"/>
    <path id="パス_2202" data-name="パス 2202" d="M91.614,29.014H90.6V28h1.014Zm-1.014.869h1.014v5.072H90.6Z" transform="translate(40.213 12.212)" fill="#231815"/>
    <path id="パス_2203" data-name="パス 2203" d="M96.323,30.3a3.686,3.686,0,0,0-1.014-.29A1.77,1.77,0,0,0,93.714,31.9a1.7,1.7,0,0,0,1.739,1.884,2.686,2.686,0,0,0,1.014-.29v.869a3.6,3.6,0,0,1-1.159.145A2.55,2.55,0,0,1,92.7,31.753,2.55,2.55,0,0,1,95.308,29c.435,0,.869.145,1.159.145Z" transform="translate(41.148 12.661)" fill="#231815"/>
    <path id="パス_2204" data-name="パス 2204" d="M96.78,29.735a3.09,3.09,0,0,1,1.739-.435c1.449,0,2.029.725,2.029,2.174v3.188h-.869v-.725h0a2.067,2.067,0,0,1-1.594.725c-1.159,0-1.884-.435-1.884-1.594,0-1.3,1.449-1.739,2.318-1.739h1.014c0-.869-.29-1.3-1.3-1.3a1.68,1.68,0,0,0-1.449.58Zm2.753,2.318h-.58c-.58,0-1.739.145-1.739,1.014a.958.958,0,0,0,1.014.869,1.338,1.338,0,0,0,1.449-1.3v-.58Z" transform="translate(42.709 12.796)" fill="#231815"/>
    <rect id="長方形_7238" data-name="長方形 7238" width="1.014" height="7.1" transform="translate(145.421 40.212)" fill="#231815"/>
    <path id="パス_2205" data-name="パス 2205" d="M107.274,28.869H105.1V28h5.362v.869h-2.174v6.086h-1.014Z" transform="translate(46.68 12.212)" fill="#231815"/>
    <path id="パス_2206" data-name="パス 2206" d="M110,28h1.014v2.608h0a1.665,1.665,0,0,1,1.594-.869c1.3,0,1.884.869,1.884,2.174v3.043h-1.014V32.347c0-1.159-.29-1.739-1.159-1.884-1.014,0-1.594.869-1.594,2.174v2.318H110Z" transform="translate(48.868 12.212)" fill="#231815"/>
    <path id="パス_2207" data-name="パス 2207" d="M118.7,34.272a3.878,3.878,0,0,1-1.594.29c-1.884,0-2.608-1.159-2.608-2.753a2.478,2.478,0,0,1,2.463-2.608c1.739,0,2.318,1.3,2.318,2.9h-3.623a1.674,1.674,0,0,0,1.739,1.739,2.637,2.637,0,0,0,1.594-.58v1.014Zm-.725-2.9a1.332,1.332,0,0,0-1.3-1.449c-.869,0-1.3.725-1.449,1.449Z" transform="translate(50.875 12.751)" fill="#231815"/>
    <path id="パス_2208" data-name="パス 2208" d="M119,29.345h.869v.725h0a1.393,1.393,0,0,1,1.3-.869h.58v.869c-.145,0-.29-.145-.58-.145-.869,0-1.449.869-1.449,2.029v2.318H119Z" transform="translate(52.886 12.751)" fill="#231815"/>
    <path id="パス_2209" data-name="パス 2209" d="M122.38,29.735a3.09,3.09,0,0,1,1.739-.435c1.449,0,2.029.725,2.029,2.174v3.188h-.869v-.725h0a2.067,2.067,0,0,1-1.594.725c-1.159,0-1.884-.435-1.884-1.594,0-1.3,1.449-1.739,2.318-1.739h1.014c0-.869-.29-1.3-1.3-1.3a1.68,1.68,0,0,0-1.449.58Zm2.753,2.318h-.58c-.58,0-1.739.145-1.739,1.014a.958.958,0,0,0,1.014.869,1.338,1.338,0,0,0,1.449-1.3v-.58Z" transform="translate(54.134 12.796)" fill="#231815"/>
    <path id="パス_2210" data-name="パス 2210" d="M126.445,29.345h.869v.725h0a2.039,2.039,0,0,1,1.739-.869c1.449,0,2.174,1.159,2.174,2.608s-.725,2.753-2.174,2.753a1.752,1.752,0,0,1-1.739-.869h0v2.753H126.3v-7.1Zm2.463.58a1.77,1.77,0,0,0-1.594,1.884c0,.869.435,1.884,1.449,1.884s1.449-1.159,1.449-1.884a1.48,1.48,0,0,0-1.3-1.884" transform="translate(56.141 12.751)" fill="#231815"/>
    <path id="パス_2211" data-name="パス 2211" d="M130.99,35.821c.145,0,.29.145.435.145.869,0,1.159-1.159,1.159-1.3s-.145-.435-.145-.58L130.7,29.3h1.014l1.449,4.2h0l1.449-4.2h1.014l-1.884,5.217c-.29,1.014-.725,2.174-2.029,2.174h-.58Z" transform="translate(58.105 12.796)" fill="#231815"/>
    <path id="パス_2212" data-name="パス 2212" d="M140.343,28h1.014l3.043,7.1h-1.159l-.725-1.739h-3.478l-.725,1.739H137.3Zm.435.869-1.449,3.478h2.753Z" transform="translate(61.047 12.212)" fill="#231815"/>
    <path id="パス_2213" data-name="パス 2213" d="M143.1,33.5a2.313,2.313,0,0,0,1.159.435c.435,0,1.014-.145,1.014-.725,0-.869-2.174-.869-2.174-2.318a1.687,1.687,0,0,1,1.884-1.594c.435,0,.869.145,1.159.145l-.145.869a2.094,2.094,0,0,0-1.014-.29c-.435,0-.869.145-.869.58,0,1.014,2.174.725,2.174,2.318a1.555,1.555,0,0,1-1.739,1.594,2.613,2.613,0,0,1-1.449-.29Z" transform="translate(63.553 12.796)" fill="#231815"/>
    <path id="パス_2214" data-name="パス 2214" d="M146.4,33.5a2.313,2.313,0,0,0,1.159.435c.435,0,1.014-.145,1.014-.725,0-.869-2.174-.869-2.174-2.318a1.687,1.687,0,0,1,1.884-1.594c.435,0,.869.145,1.159.145l-.145.869a2.094,2.094,0,0,0-1.014-.29c-.435,0-.869.145-.869.58,0,1.014,2.174.725,2.174,2.318a1.555,1.555,0,0,1-1.739,1.594,2.613,2.613,0,0,1-1.449-.29Z" transform="translate(65.034 12.796)" fill="#231815"/>
    <path id="パス_2215" data-name="パス 2215" d="M152.208,29.2a2.55,2.55,0,0,1,2.608,2.753,2.63,2.63,0,0,1-2.608,2.753,2.55,2.55,0,0,1-2.608-2.753,2.55,2.55,0,0,1,2.608-2.753m0,4.637a1.674,1.674,0,0,0,1.594-1.884,1.687,1.687,0,0,0-1.594-1.884,1.77,1.77,0,0,0-1.594,1.884,1.674,1.674,0,0,0,1.594,1.884" transform="translate(66.471 12.751)" fill="#231815"/>
    <path id="パス_2216" data-name="パス 2216" d="M157.823,30.3a3.686,3.686,0,0,0-1.014-.29,1.77,1.77,0,0,0-1.594,1.884,1.7,1.7,0,0,0,1.739,1.884,2.686,2.686,0,0,0,1.014-.29v.869a3.6,3.6,0,0,1-1.159.145,2.55,2.55,0,0,1-2.608-2.753A2.55,2.55,0,0,1,156.808,29c.435,0,.869.145,1.159.145Z" transform="translate(68.537 12.661)" fill="#231815"/>
    <path id="パス_2217" data-name="パス 2217" d="M159.159,29.014H158V28h1.014v1.014Zm-1.014.869h1.014v5.072h-1.014Z" transform="translate(70.243 12.212)" fill="#231815"/>
    <path id="パス_2218" data-name="パス 2218" d="M160.58,29.735a3.09,3.09,0,0,1,1.739-.435c1.449,0,2.029.725,2.029,2.174v3.188h-.869v-.725h0a2.067,2.067,0,0,1-1.594.725c-1.159,0-1.884-.435-1.884-1.594,0-1.3,1.449-1.739,2.319-1.739h1.014c0-.869-.29-1.3-1.3-1.3a1.68,1.68,0,0,0-1.449.58Zm2.753,2.318h-.58c-.58,0-1.739.145-1.739,1.014a.958.958,0,0,0,1.014.869,1.338,1.338,0,0,0,1.449-1.3v-.58Z" transform="translate(71.142 12.796)" fill="#231815"/>
    <path id="パス_2219" data-name="パス 2219" d="M167.333,30.474h-1.3v2.753a.815.815,0,0,0,.725.869c.29,0,.435-.145.58-.145v.869a5.124,5.124,0,0,1-.869.145c-1.014,0-1.594-.435-1.594-1.449V30.474H164v-.725h1.159V28.59l1.014-.29v1.449h1.3v.725Z" transform="translate(72.938 12.347)" fill="#231815"/>
    <path id="パス_2220" data-name="パス 2220" d="M168.814,29.014H167.8V28h1.014Zm-1.014.869h1.014v5.072H167.8Z" transform="translate(74.644 12.212)" fill="#231815"/>
    <path id="パス_2221" data-name="パス 2221" d="M172.208,29.2a2.55,2.55,0,0,1,2.608,2.753,2.63,2.63,0,0,1-2.608,2.753,2.55,2.55,0,0,1-2.608-2.753,2.55,2.55,0,0,1,2.608-2.753m0,4.637a1.674,1.674,0,0,0,1.594-1.884,1.687,1.687,0,0,0-1.594-1.884,1.77,1.77,0,0,0-1.594,1.884,1.674,1.674,0,0,0,1.594,1.884" transform="translate(75.452 12.751)" fill="#231815"/>
    <path id="パス_2222" data-name="パス 2222" d="M174.39,29.3h.869v.869h0A1.9,1.9,0,0,1,177,29.3c1.3,0,1.884.869,1.884,2.174v3.043h-1.014V31.763c0-1.159-.29-1.739-1.159-1.884-1.014,0-1.594.869-1.594,2.174v2.318H174.1V29.3Z" transform="translate(77.473 12.796)" fill="#231815"/>
    <path id="パス_2223" data-name="パス 2223" d="M44.506,5.474h-.725a15.178,15.178,0,0,1,1.159,1.594,26.987,26.987,0,0,1-4.347.725A16.119,16.119,0,0,0,42.478,3.3h-.725a16.142,16.142,0,0,1-2.029,4.492A1.576,1.576,0,0,0,39,7.937v.725a37.408,37.408,0,0,0,6.086-1.014c.145.29.435.725.58,1.014h.725a29.447,29.447,0,0,0-1.884-3.188" transform="translate(17.181 1.212)" fill="#231815"/>
    <path id="パス_2224" data-name="パス 2224" d="M44.506,5.474h-.725a15.178,15.178,0,0,1,1.159,1.594,26.987,26.987,0,0,1-4.347.725A16.119,16.119,0,0,0,42.478,3.3h-.725a16.142,16.142,0,0,1-2.029,4.492A1.576,1.576,0,0,0,39,7.937v.725a37.408,37.408,0,0,0,6.086-1.014c.145.29.435.725.58,1.014h.725A29.447,29.447,0,0,0,44.506,5.474Z" transform="translate(17.181 1.212)" fill="none" stroke="#231815" stroke-miterlimit="10" stroke-width="0.044"/>
    <path id="パス_2225" data-name="パス 2225" d="M40.953.9A7.745,7.745,0,0,1,38.2,4.088v.725A8.217,8.217,0,0,0,41.533.9h-.58Z" transform="translate(16.825 0.135)" fill="#231815"/>
    <path id="パス_2226" data-name="パス 2226" d="M40.953.9A7.745,7.745,0,0,1,38.2,4.088v.725A8.217,8.217,0,0,0,41.533.9h-.58Z" transform="translate(16.825 0.135)" fill="none" stroke="#231815" stroke-miterlimit="10" stroke-width="0.044"/>
    <path id="パス_2227" data-name="パス 2227" d="M45.533,4.088A10.545,10.545,0,0,1,42.925.9H42.2a11.742,11.742,0,0,0,3.333,3.912Z" transform="translate(18.61 0.135)" fill="#231815"/>
    <path id="パス_2228" data-name="パス 2228" d="M45.533,4.088A10.545,10.545,0,0,1,42.925.9H42.2a11.742,11.742,0,0,0,3.333,3.912Z" transform="translate(18.61 0.135)" fill="none" stroke="#231815" stroke-miterlimit="10" stroke-width="0.044"/>
    <path id="パス_2229" data-name="パス 2229" d="M55.894,2.249H53.286A3.174,3.174,0,0,0,54.155.8h-.58a4.416,4.416,0,0,1-1.014,1.449H50.678A7.736,7.736,0,0,0,49.663.8h-.725a10.19,10.19,0,0,1,1.014,1.449H47.2v.58h2.608A6.862,6.862,0,0,1,47.2,5v.725a7.915,7.915,0,0,0,3.188-2.9h2.318a9.808,9.808,0,0,0,3.043,2.9V5a7.585,7.585,0,0,1-2.463-2.318h2.463V2.249Z" transform="translate(20.839 0.09)" fill="#231815"/>
    <path id="パス_2230" data-name="パス 2230" d="M55.894,2.249H53.286A3.174,3.174,0,0,0,54.155.8h-.58a4.416,4.416,0,0,1-1.014,1.449H50.678A7.736,7.736,0,0,0,49.663.8h-.725a10.19,10.19,0,0,1,1.014,1.449H47.2v.58h2.608A6.862,6.862,0,0,1,47.2,5v.725a7.915,7.915,0,0,0,3.188-2.9h2.318a9.808,9.808,0,0,0,3.043,2.9V5a7.585,7.585,0,0,1-2.463-2.318h2.463V2.249Z" transform="translate(20.839 0.09)" fill="none" stroke="#231815" stroke-miterlimit="10" stroke-width="0.044"/>
    <path id="パス_2231" data-name="パス 2231" d="M59.723,6.306a3.333,3.333,0,0,1-1.014-1.159,6.437,6.437,0,0,0,1.159-2.318V2.394H58.418V.8h-.58V2.539H56.245v.58h3.043A7.487,7.487,0,0,1,56.1,6.886v.725a5,5,0,0,0,1.739-1.3V9.784h.58V5.727a5.533,5.533,0,0,0,1.3,1.3Z" transform="translate(24.814 0.09)" fill="#231815"/>
    <path id="パス_2232" data-name="パス 2232" d="M59.723,6.306a3.333,3.333,0,0,1-1.014-1.159,6.437,6.437,0,0,0,1.159-2.318V2.394H58.418V.8h-.58V2.539H56.245v.58h3.043A7.487,7.487,0,0,1,56.1,6.886v.725a5,5,0,0,0,1.739-1.3V9.784h.58V5.727a5.533,5.533,0,0,0,1.3,1.3Z" transform="translate(24.814 0.09)" fill="none" stroke="#231815" stroke-miterlimit="10" stroke-width="0.044"/>
    <path id="パス_2233" data-name="パス 2233" d="M65,9.784h7.97V.8H65Zm7.39-.58H65.58V1.38H72.39Z" transform="translate(28.783 0.09)" fill="#231815"/>
    <path id="パス_2234" data-name="パス 2234" d="M65,9.784h7.97V.8H65Zm7.39-.58H65.58V1.38H72.39Z" transform="translate(28.783 0.09)" fill="none" stroke="#231815" stroke-miterlimit="10" stroke-width="0.044"/>
    <path id="パス_2235" data-name="パス 2235" d="M69.523,6.382c0,1.014-.145,1.159-1.159,1.159h-.145v.725h.29c1.159,0,1.739,0,1.739-1.739v-2.9H71.7v-.58H70.247V1.6h-.58V3.049H65.9v.58h3.768V6.382Z" transform="translate(29.186 0.449)" fill="#231815"/>
    <path id="パス_2236" data-name="パス 2236" d="M69.523,6.382c0,1.014-.145,1.159-1.159,1.159h-.145v.725h.29c1.159,0,1.739,0,1.739-1.739v-2.9H71.7v-.58H70.247V1.6h-.58V3.049H65.9v.58h3.768V6.382Z" transform="translate(29.186 0.449)" fill="none" stroke="#231815" stroke-miterlimit="10" stroke-width="0.044"/>
    <path id="パス_2237" data-name="パス 2237" d="M67.849,5.439A6.272,6.272,0,0,0,67.125,3.7H66.4a4.836,4.836,0,0,1,.725,1.739Z" transform="translate(29.412 1.392)" fill="#231815"/>
    <path id="パス_2238" data-name="パス 2238" d="M67.849,5.439A6.272,6.272,0,0,0,67.125,3.7H66.4a4.836,4.836,0,0,1,.725,1.739Z" transform="translate(29.412 1.392)" fill="none" stroke="#231815" stroke-miterlimit="10" stroke-width="0.044"/>
    <path id="パス_2239" data-name="パス 2239" d="M81.721,5.582V5H78.678V2.829h2.608v-.58H78.678V.8H78.1V2.249H75.635v.58H78.1V4.857H75.2v.58h2.463A17.083,17.083,0,0,1,76.214,9.06H75.49v.725a16.614,16.614,0,0,0,5.072-.725,1.107,1.107,0,0,0,.29.725h.725C81,8.77,80.562,8.045,79.982,7.176h-.725a12.742,12.742,0,0,1,.869,1.449,15.522,15.522,0,0,1-3.333.435,17.728,17.728,0,0,0,1.449-3.478Z" transform="translate(33.335 0.09)" fill="#231815"/>
    <path id="パス_2240" data-name="パス 2240" d="M81.721,5.582V5H78.678V2.829h2.608v-.58H78.678V.8H78.1V2.249H75.635v.58H78.1V4.857H75.2v.58h2.463A17.083,17.083,0,0,1,76.214,9.06H75.49v.725a16.614,16.614,0,0,0,5.072-.725,1.107,1.107,0,0,0,.29.725h.725C81,8.77,80.562,8.045,79.982,7.176h-.725a12.742,12.742,0,0,1,.869,1.449,15.522,15.522,0,0,1-3.333.435,17.728,17.728,0,0,0,1.449-3.478Z" transform="translate(33.335 0.09)" fill="none" stroke="#231815" stroke-miterlimit="10" stroke-width="0.044"/>
    <path id="パス_2241" data-name="パス 2241" d="M73.98,8.078A19.742,19.742,0,0,0,75.429,4.6h-.58A11.853,11.853,0,0,1,73.4,8.078Z" transform="translate(32.536 1.796)" fill="#231815"/>
    <path id="パス_2242" data-name="パス 2242" d="M73.98,8.078A19.742,19.742,0,0,0,75.429,4.6h-.58A11.853,11.853,0,0,1,73.4,8.078Z" transform="translate(32.536 1.796)" fill="none" stroke="#231815" stroke-miterlimit="10" stroke-width="0.044"/>
    <path id="パス_2243" data-name="パス 2243" d="M90.849,9.06A7.624,7.624,0,0,1,86.937,3.7V.8h-.725V3.408A6.444,6.444,0,0,1,82.3,9.06v.725c2.463-1.3,3.912-3.043,4.2-4.927a8.6,8.6,0,0,0,4.2,4.927h0V9.06Z" transform="translate(36.502 0.09)" fill="#231815"/>
    <path id="パス_2244" data-name="パス 2244" d="M90.849,9.06A7.624,7.624,0,0,1,86.937,3.7V.8h-.725V3.408A6.444,6.444,0,0,1,82.3,9.06v.725c2.463-1.3,3.912-3.043,4.2-4.927a8.6,8.6,0,0,0,4.2,4.927h0V9.06Z" transform="translate(36.502 0.09)" fill="none" stroke="#231815" stroke-miterlimit="10" stroke-width="0.044"/>
    <path id="パス_2245" data-name="パス 2245" d="M71.8,17.986H69.335v1.159H71.8v6.086c-.869.145-1.739.435-2.9.58v1.3a65.371,65.371,0,0,0,6.666-1.594V24.362s-1.159.29-2.608.725v-5.8h2.174V18.131H72.957V13.059h2.174V11.9h-5.8v1.159H71.8v4.927Z" transform="translate(30.524 5.03)" fill="#231815"/>
    <path id="パス_2246" data-name="パス 2246" d="M80.021,27.3v-2.9h4.347V23.248H80.021V20.784h4.2V11.8H74.514v8.984h4.2V23.1H74.225v1.159h4.492v2.9H73.5v1.159H84.948V27.16H80.021Zm0-14.346h3.043v2.753H80.021Zm0,3.912h3.043v2.9H80.021Zm-1.3,2.9H75.674v-2.9h3.043Zm0-4.057H75.674V12.959h3.043Z" transform="translate(32.573 4.983)" fill="#231815"/>
    <path id="パス_2247" data-name="パス 2247" d="M70.858,25.935V24.341a16.869,16.869,0,0,1-7.245-9.129h6.666V14.053h-7.97V11.3H61v2.753H53.18v1.159h6.666c-1.3,3.623-3.333,6.955-7.245,9.129v1.594c4.637-2.608,6.811-5.941,8.4-10.723v8.694H56.512v1.159H61v3.623h1.3V25.066H66.8V23.907H62.309V15.212c1.739,4.782,4.057,8.115,8.549,10.723" transform="translate(23.243 4.76)" fill="#231815"/>
    <path id="パス_2248" data-name="パス 2248" d="M86.9,15.112H101.54v2.753H102.7V13.953H99.076A17.617,17.617,0,0,0,100.96,11.2H99.511c-.725,1.159-1.594,2.174-2.029,2.753H85.6v3.912h1.159V15.112Z" transform="translate(37.966 4.727)" fill="#231815"/>
    <path id="パス_2249" data-name="パス 2249" d="M91.294,11.3H89.7a26.99,26.99,0,0,1,2.029,3.333h1.449A34.952,34.952,0,0,0,91.294,11.3" transform="translate(39.809 4.774)" fill="#231815"/>
    <path id="パス_2250" data-name="パス 2250" d="M88.094,11.3H86.5a15.261,15.261,0,0,1,2.174,3.478l1.449-.145A24.3,24.3,0,0,0,88.094,11.3" transform="translate(38.381 4.773)" fill="#231815"/>
    <path id="パス_2251" data-name="パス 2251" d="M95.4,20.806v-.58l4.057-3.768V15.3H88.733v1.159h8.984l-2.753,2.608h-.869v1.739H85.4v1.159h8.694v2.174c0,1.159-.145,1.449-2.608,1.449v1.3c3.043,0,3.912-.435,3.912-2.174V21.966h7.68V20.806Z" transform="translate(37.876 6.549)" fill="#231815"/>
    <path id="パス_2252" data-name="パス 2252" d="M119.523,12.749H113V11.3h-1.159v1.449h-7.68V17.1a13.383,13.383,0,0,0-2.463-2.029v1.449a10.115,10.115,0,0,1,2.463,2.174v1.739a15.079,15.079,0,0,1-2.318,2.318V24.2a15.652,15.652,0,0,0,2.318-2.318A14.834,14.834,0,0,1,101.99,28.4h1.449c1.449-2.029,2.029-5.217,2.029-11.013V13.618h14.346v-.869Z" transform="translate(45.147 4.76)" fill="#231815"/>
    <path id="パス_2253" data-name="パス 2253" d="M107.253,21.1a5.279,5.279,0,0,1-2.753,2.029v1.159a6.862,6.862,0,0,0,4.2-3.188h-1.449Z" transform="translate(46.413 9.146)" fill="#231815"/>
    <path id="パス_2254" data-name="パス 2254" d="M112.449,21.1H111a7.358,7.358,0,0,0,4.347,3.188v-1.3a4.67,4.67,0,0,1-2.9-1.884" transform="translate(49.314 9.146)" fill="#231815"/>
    <path id="パス_2255" data-name="パス 2255" d="M115.892,18.037a7.566,7.566,0,0,0,1.739-1.884h-1.449a3.443,3.443,0,0,1-1.3,1.3,10.6,10.6,0,0,1-2.318-2.029h5.217V14.414h-6.231a3.264,3.264,0,0,0,.145-1.014h-1.159a3.824,3.824,0,0,1-.145,1.014h-5.072v1.014h4.492a4.976,4.976,0,0,1-1.739,1.739c-.29-.145-.869-.725-1.3-1.014h-1.594c.725.725,1.594,1.449,1.884,1.739a9.673,9.673,0,0,1-2.753,1.3v1.3a5.743,5.743,0,0,0,1.884-.869v4.2h4.492v1.594c0,1.014-.29,1.3-1.739,1.3v1.159c2.174,0,2.9-.145,2.9-2.029V23.833h4.347v-4.2a13.465,13.465,0,0,1,1.449.725l.29.145V19.2a5.685,5.685,0,0,0-2.029-1.159m-4.782-2.608h.435a24.7,24.7,0,0,0,2.753,2.753h-5.651a15.151,15.151,0,0,0,2.463-2.753m4.2,7.245h-7.535v-1.3h7.535Zm0-2.174h-7.535V19.2h7.535Z" transform="translate(46.313 5.698)" fill="#231815"/>
    <path id="パス_2256" data-name="パス 2256" d="M133.907,19.7H128.4V15.5h4.927V14.343H128.4V11.3h-1.3v3.043h-4.927V15.5H127.1v4.2h-5.8v1.159h4.927a24.44,24.44,0,0,1-3.043,6.376,12.07,12.07,0,0,0-1.739.145v1.3a52.743,52.743,0,0,0,10.288-1.3l.869,1.3h1.449c-1.159-2.029-2.174-3.768-3.333-5.651H129.27c.725,1.014,1.159,2.029,1.884,3.188a38.726,38.726,0,0,1-6.521,1.014,48.7,48.7,0,0,0,2.9-6.376h6.231V19.7Z" transform="translate(53.899 4.76)" fill="#231815"/>
    <path id="パス_2257" data-name="パス 2257" d="M120.843,19.2a19.121,19.121,0,0,1-3.043,5.941h1.449A16.368,16.368,0,0,0,122,19.2Z" transform="translate(52.349 8.295)" fill="#231815"/>
    <path id="パス_2258" data-name="パス 2258" d="M120.7,16.684c-1.449-1.014-2.753-1.739-2.9-1.884v1.449c.725.435,1.884,1.159,2.9,1.884Z" transform="translate(52.351 6.335)" fill="#231815"/>
    <path id="パス_2259" data-name="パス 2259" d="M118.6,11.8v1.449a21.675,21.675,0,0,1,2.753,2.029V13.684A23.371,23.371,0,0,0,118.6,11.8" transform="translate(52.708 4.997)" fill="#231815"/>
    <path id="パス_2260" data-name="パス 2260" d="M156.076,16.517h-2.753V11.3h-1.159v5.217H149.7v1.159h2.463V28.689h1.159V17.676h2.753Z" transform="translate(66.516 4.76)" fill="#231815"/>
    <path id="パス_2261" data-name="パス 2261" d="M156.378,18.594V17h-1.159v1.594h-1.594v1.159h1.594a10.77,10.77,0,0,1-2.318,6.376h1.449a12.014,12.014,0,0,0,2.174-6.376h1.594v2.608c0,2.318-.145,2.608-1.739,2.608v1.159c2.753,0,2.9-1.159,2.9-4.637v-2.9h-2.9Z" transform="translate(67.953 7.31)" fill="#231815"/>
    <path id="パス_2262" data-name="パス 2262" d="M160.878,18.594V17h-1.159v1.594h-1.594v1.159h1.594a10.77,10.77,0,0,1-2.318,6.376h1.449a12.014,12.014,0,0,0,2.174-6.376h1.594v2.608c0,2.318-.145,2.608-1.739,2.608v1.159c2.753,0,2.9-1.159,2.9-4.637v-2.9h-2.9Z" transform="translate(69.974 7.31)" fill="#231815"/>
    <path id="パス_2263" data-name="パス 2263" d="M159.292,13.329V11.3h-1.159v2.029H154.8v1.159h3.188a10.743,10.743,0,0,1-2.463,4.492h1.449a11.133,11.133,0,0,0,2.319-4.492h3.478v1.159c0,1.884-.145,2.029-2.319,2.174v1.3c3.478-.145,3.478-.725,3.478-3.768V13.474h-4.637Z" transform="translate(68.806 4.77)" fill="#231815"/>
    <rect id="長方形_7239" data-name="長方形 7239" width="10.868" height="1.159" transform="translate(242.734 22.149)" fill="#231815"/>
    <path id="パス_2264" data-name="パス 2264" d="M182.564,16.372a19.75,19.75,0,0,1-7.825-5.072H173.58a22.014,22.014,0,0,1-7.68,5.072v1.449a24.707,24.707,0,0,0,8.26-5.362,26.129,26.129,0,0,0,8.4,5.362Z" transform="translate(73.791 4.771)" fill="#231815"/>
    <path id="パス_2265" data-name="パス 2265" d="M179.042,21.088h-1.594s1.014,1.3,1.739,2.318a51.332,51.332,0,0,1-9.129.869,32.452,32.452,0,0,0,3.623-5.217h8.984V17.9H166v1.159h6.231a28.279,28.279,0,0,1-3.768,5.217h-1.739v1.159a94.837,94.837,0,0,0,13.186-1.159,8.039,8.039,0,0,1,.869,1.159h1.594c-1.159-1.3-2.608-3.333-3.333-4.347" transform="translate(73.836 7.713)" fill="#231815"/>
    <path id="パス_2266" data-name="パス 2266" d="M3.3,33.876a4.078,4.078,0,0,0,1.159.145c1.159,0,1.159-.869,1.159-1.3V27.5H7.5v5.941c0,.869-.58,2.029-2.463,2.029A4.677,4.677,0,0,1,3.3,35.18Z" transform="translate(1.257 11.987)" fill="#231815"/>
    <path id="パス_2267" data-name="パス 2267" d="M8.1,27.6h2.318c2.029,0,3.768.435,3.768,2.318,0,1.739-1.594,2.463-3.478,2.463H9.984v2.9H8.1Zm1.884,3.478h.58c.869,0,1.739-.29,1.739-1.159s-.58-1.159-1.739-1.159h-.58Z" transform="translate(3.413 12.032)" fill="#231815"/>
    <path id="パス_2268" data-name="パス 2268" d="M15.908,28.759H13.3V27.6h7.1v1.159H17.792V35.28H15.908Z" transform="translate(5.748 12.032)" fill="#231815"/>
    <path id="パス_2269" data-name="パス 2269" d="M21.933,27.6h2.029l3.623,7.68H25.555l-.725-1.739H21.208l-.725,1.739H18.6Zm1.014,1.449h0l-1.3,3.188h2.608Z" transform="translate(8.128 12.032)" fill="#231815"/>
  </g>
</svg>
